<?xml version="1.0" encoding="utf-8"?>
<!-- Generator: Adobe Illustrator 19.0.0, SVG Export Plug-In . SVG Version: 6.00 Build 0)  -->
<svg version="1.1" xmlns="http://www.w3.org/2000/svg" xmlns:xlink="http://www.w3.org/1999/xlink" x="0px" y="0px"
	 viewBox="590 -500 1792 1792" style="enable-background:new 590 -500 1792 1792;" xml:space="preserve">
<g id="Ebene_1">
</g>
<g id="Ebene_2">
	<path d="M2262,74.5c-80-98.3-188.7-176-326-233S1648.7-244,1486-244c-121.3,0-237.3,16.8-348,50.5C1027.3-159.8,932-114.3,852-57
		C772,0.3,708.3,68.5,661,147.5S590,309.3,590,396c0,100,30.2,193.7,90.5,281S823.3,837.7,928,897c-7.3,26.7-16,52-26,76
		s-19,43.7-27,59s-18.8,32.3-32.5,51s-24,31.8-31,39.5s-18.5,20.3-34.5,38s-26.3,29.2-31,34.5l-8,9l-7,8.5l-6,9
		c-3.3,5-4.8,8.2-4.5,9.5s-0.3,4.7-2,10s-1.5,9.3,0.5,12v1c2.7,12,8.5,21.7,17.5,29s19.2,10.3,30.5,9c43.3-5.3,81.3-12.7,114-22
		c174.7-44.7,328-125.3,460-242c50,5.3,98.3,8,145,8c162.7,0,312.7-28.5,450-85.5s246-134.7,326-233S2382,512,2382,396
		S2342,172.8,2262,74.5z M1311.9,680.9h-175.7V283.4h175.7V680.9z M1587.6,680.9h-175.7V126.1h175.7V680.9z M1863.2,680.9h-175.7
		V283.4h175.7V680.9z"/>
</g>
</svg>
